<?xml version="1.0" encoding="utf-8"?>
<!-- Generator: Adobe Illustrator 18.1.0, SVG Export Plug-In . SVG Version: 6.00 Build 0)  -->
<svg version="1.1" xmlns="http://www.w3.org/2000/svg" xmlns:xlink="http://www.w3.org/1999/xlink" x="0px" y="0px"
	 viewBox="0 0 1024 1024" enable-background="new 0 0 1024 1024" xml:space="preserve">
<g id="图层_1" display="none">
	<g id="图层_2" display="inline">
	</g>
</g>
<g id="图层_3" display="none">
	<g display="inline">
		<g>
			<path stroke="#000000" stroke-width="5" stroke-miterlimit="10" d="M313.1,527.6c0,6.7-5.5,12.2-12.2,12.2h-63
				c-6.7,0-12.2-5.5-12.2-12.2V397.8c0-6.7,5.5-12.2,12.2-12.2h63c6.7,0,12.2,5.5,12.2,12.2V527.6z"/>
		</g>
		
			<line fill="none" stroke="#000000" stroke-width="5" stroke-linecap="round" stroke-linejoin="round" stroke-miterlimit="10" x1="269" y1="385.6" x2="269" y2="336"/>
		
			<line fill="none" stroke="#000000" stroke-width="5" stroke-linecap="round" stroke-linejoin="round" stroke-miterlimit="10" x1="269" y1="589.4" x2="269" y2="539.8"/>
		<g>
			<path stroke="#000000" stroke-width="5" stroke-miterlimit="10" d="M435.5,621.8c0,6.7-5.5,12.2-12.2,12.2h-62.4
				c-6.7,0-12.2-5.5-12.2-12.2v-74.7c0-6.7,5.5-12.2,12.2-12.2h62.4c6.7,0,12.2,5.5,12.2,12.2V621.8z"/>
		</g>
		
			<line fill="none" stroke="#000000" stroke-width="5" stroke-linecap="round" stroke-linejoin="round" stroke-miterlimit="10" x1="392" y1="534.9" x2="392" y2="484.7"/>
		
			<line fill="none" stroke="#000000" stroke-width="5" stroke-linecap="round" stroke-linejoin="round" stroke-miterlimit="10" x1="392" y1="683.6" x2="392" y2="634"/>
		<g>
			<path stroke="#000000" stroke-width="5" stroke-miterlimit="10" d="M558.5,724c0,6.7-5.5,12.2-12.2,12.2h-62.4
				c-6.7,0-12.2-5.5-12.2-12.2v-77.7c0-6.7,5.5-12.2,12.2-12.2h62.4c6.7,0,12.2,5.5,12.2,12.2V724L558.5,724z"/>
		</g>
		
			<line fill="none" stroke="#000000" stroke-width="5" stroke-linecap="round" stroke-linejoin="round" stroke-miterlimit="10" x1="515" y1="634" x2="515" y2="584.5"/>
		
			<line fill="none" stroke="#000000" stroke-width="5" stroke-linecap="round" stroke-linejoin="round" stroke-miterlimit="10" x1="515" y1="785.8" x2="515" y2="736.2"/>
		<g>
			<path fill="none" stroke="#000000" stroke-width="5" stroke-linecap="round" stroke-linejoin="round" stroke-miterlimit="10" d="
				M681.5,621.8c0,6.7-5.5,12.2-12.2,12.2h-62.4c-6.7,0-12.2-5.5-12.2-12.2V448c0-6.7,5.5-12.2,12.2-12.2h62.4
				c6.7,0,12.2,5.5,12.2,12.2V621.8z"/>
		</g>
		
			<line fill="none" stroke="#000000" stroke-width="5" stroke-linecap="round" stroke-linejoin="round" stroke-miterlimit="10" x1="638" y1="435.8" x2="638" y2="386.2"/>
		
			<line fill="none" stroke="#000000" stroke-width="5" stroke-linecap="round" stroke-linejoin="round" stroke-miterlimit="10" x1="638" y1="683.6" x2="638" y2="634"/>
		<g>
			<path fill="none" stroke="#000000" stroke-width="5" stroke-linecap="round" stroke-linejoin="round" stroke-miterlimit="10" d="
				M804.5,419.8c0,6.7-5.5,12.2-12.2,12.2h-63c-6.7,0-12.2-5.5-12.2-12.2v-68.5c0-6.7,5.5-12.2,12.2-12.2h62.4
				c6.7,0,12.2,5.5,12.2,12.2v68.5H804.5z"/>
		</g>
		
			<line fill="none" stroke="#000000" stroke-width="5" stroke-linecap="round" stroke-linejoin="round" stroke-miterlimit="10" x1="761.1" y1="339.1" x2="761.1" y2="289.5"/>
		
			<line fill="none" stroke="#000000" stroke-width="5" stroke-linecap="round" stroke-linejoin="round" stroke-miterlimit="10" x1="761.1" y1="481.7" x2="761.1" y2="432.1"/>
	</g>
</g>
<g id="图层_4">
	<g>
		<g>
			<g>
				
					<path fill="none" stroke="#000000" stroke-width="5" stroke-linecap="round" stroke-linejoin="round" stroke-miterlimit="10" d="
					M245.8,671.9c72.1,72.1,269.3,237.6,269.3,237.6s197.1-166.1,269.2-238.2"/>
			</g>
		</g>
		
			<line fill="none" stroke="#000000" stroke-width="5" stroke-linecap="round" stroke-linejoin="round" stroke-miterlimit="10" x1="515.1" y1="909.5" x2="515.1" y2="109.5"/>
	</g>
</g>
</svg>
