<?xml version="1.0" encoding="utf-8"?>
<!-- Generator: Adobe Illustrator 18.1.0, SVG Export Plug-In . SVG Version: 6.00 Build 0)  -->
<svg version="1.1" xmlns="http://www.w3.org/2000/svg" xmlns:xlink="http://www.w3.org/1999/xlink" x="0px" y="0px"
	 viewBox="0 0 1024 1024" enable-background="new 0 0 1024 1024" xml:space="preserve">
<g id="图层_1" display="none">
	<g id="图层_2" display="inline">
	</g>
</g>
<g id="图层_3" display="none">
	<g display="inline">
		<g>
			<path stroke="#000000" stroke-width="5" stroke-miterlimit="10" d="M313.1,527.6c0,6.7-5.5,12.2-12.2,12.2h-63
				c-6.7,0-12.2-5.5-12.2-12.2V397.8c0-6.7,5.5-12.2,12.2-12.2h63c6.7,0,12.2,5.5,12.2,12.2V527.6z"/>
		</g>
		
			<line fill="none" stroke="#000000" stroke-width="5" stroke-linecap="round" stroke-linejoin="round" stroke-miterlimit="10" x1="269" y1="385.6" x2="269" y2="336"/>
		
			<line fill="none" stroke="#000000" stroke-width="5" stroke-linecap="round" stroke-linejoin="round" stroke-miterlimit="10" x1="269" y1="589.4" x2="269" y2="539.8"/>
		<g>
			<path stroke="#000000" stroke-width="5" stroke-miterlimit="10" d="M435.5,621.8c0,6.7-5.5,12.2-12.2,12.2h-62.4
				c-6.7,0-12.2-5.5-12.2-12.2v-74.7c0-6.7,5.5-12.2,12.2-12.2h62.4c6.7,0,12.2,5.5,12.2,12.2V621.8z"/>
		</g>
		
			<line fill="none" stroke="#000000" stroke-width="5" stroke-linecap="round" stroke-linejoin="round" stroke-miterlimit="10" x1="392" y1="534.9" x2="392" y2="484.7"/>
		
			<line fill="none" stroke="#000000" stroke-width="5" stroke-linecap="round" stroke-linejoin="round" stroke-miterlimit="10" x1="392" y1="683.6" x2="392" y2="634"/>
		<g>
			<path stroke="#000000" stroke-width="5" stroke-miterlimit="10" d="M558.5,724c0,6.7-5.5,12.2-12.2,12.2h-62.4
				c-6.7,0-12.2-5.5-12.2-12.2v-77.7c0-6.7,5.5-12.2,12.2-12.2h62.4c6.7,0,12.2,5.5,12.2,12.2V724L558.5,724z"/>
		</g>
		
			<line fill="none" stroke="#000000" stroke-width="5" stroke-linecap="round" stroke-linejoin="round" stroke-miterlimit="10" x1="515" y1="634" x2="515" y2="584.5"/>
		
			<line fill="none" stroke="#000000" stroke-width="5" stroke-linecap="round" stroke-linejoin="round" stroke-miterlimit="10" x1="515" y1="785.8" x2="515" y2="736.2"/>
		<g>
			<path fill="none" stroke="#000000" stroke-width="5" stroke-linecap="round" stroke-linejoin="round" stroke-miterlimit="10" d="
				M681.5,621.8c0,6.7-5.5,12.2-12.2,12.2h-62.4c-6.7,0-12.2-5.5-12.2-12.2V448c0-6.7,5.5-12.2,12.2-12.2h62.4
				c6.7,0,12.2,5.5,12.2,12.2V621.8z"/>
		</g>
		
			<line fill="none" stroke="#000000" stroke-width="5" stroke-linecap="round" stroke-linejoin="round" stroke-miterlimit="10" x1="638" y1="435.8" x2="638" y2="386.2"/>
		
			<line fill="none" stroke="#000000" stroke-width="5" stroke-linecap="round" stroke-linejoin="round" stroke-miterlimit="10" x1="638" y1="683.6" x2="638" y2="634"/>
		<g>
			<path fill="none" stroke="#000000" stroke-width="5" stroke-linecap="round" stroke-linejoin="round" stroke-miterlimit="10" d="
				M804.5,419.8c0,6.7-5.5,12.2-12.2,12.2h-63c-6.7,0-12.2-5.5-12.2-12.2v-68.5c0-6.7,5.5-12.2,12.2-12.2h62.4
				c6.7,0,12.2,5.5,12.2,12.2v68.5H804.5z"/>
		</g>
		
			<line fill="none" stroke="#000000" stroke-width="5" stroke-linecap="round" stroke-linejoin="round" stroke-miterlimit="10" x1="761.1" y1="339.1" x2="761.1" y2="289.5"/>
		
			<line fill="none" stroke="#000000" stroke-width="5" stroke-linecap="round" stroke-linejoin="round" stroke-miterlimit="10" x1="761.1" y1="481.7" x2="761.1" y2="432.1"/>
	</g>
</g>
<g id="图层_4" display="none">
	<g display="inline">
		<g>
			<g>
				
					<path fill="none" stroke="#000000" stroke-width="5" stroke-linecap="round" stroke-linejoin="round" stroke-miterlimit="10" d="
					M245.8,671.9c72.1,72.1,269.3,237.6,269.3,237.6s197.1-166.1,269.2-238.2"/>
			</g>
		</g>
		
			<line fill="none" stroke="#000000" stroke-width="5" stroke-linecap="round" stroke-linejoin="round" stroke-miterlimit="10" x1="515.1" y1="909.5" x2="515.1" y2="109.5"/>
	</g>
</g>
<g id="图层_5">
	<g>
		<g>
			<g>
				<g>
					
						<path fill="none" stroke="#000000" stroke-width="5" stroke-linecap="round" stroke-linejoin="round" stroke-miterlimit="10" d="
						M599,756v62.5l29.6,44.4v8.6c0,7-5.7,5.4-12.7,5.4H414.1c-7,0-12.7,1.6-12.7-5.4v-8.6l29.7-44.6V756"/>
				</g>
				<g>
					<g>
						
							<path fill="none" stroke="#000000" stroke-width="5" stroke-linecap="round" stroke-linejoin="round" stroke-miterlimit="10" d="
							M915,708.3c0,26.4-21.4,47.8-47.7,47.8H162.8c-26.4,0-47.8-21.4-47.8-47.8V236.7c0-26.4,21.4-47.8,47.8-47.8h704.5
							c26.4,0,47.7,21.4,47.7,47.8V708.3z"/>
						<g>
							
								<rect x="172.2" y="249.7" fill="none" stroke="#000000" stroke-width="5" stroke-linecap="round" stroke-linejoin="round" stroke-miterlimit="10" width="684.2" height="387.3"/>
						</g>
					</g>
					<g>
						<g>
							
								<path id="SVGID_1_" fill="none" stroke="#000000" stroke-width="5" stroke-linecap="round" stroke-linejoin="round" stroke-miterlimit="10" d="
								M915,708.3c0,26.4-21.4,47.8-47.7,47.8H162.8c-26.4,0-47.8-21.4-47.8-47.8V236.7c0-26.4,21.4-47.8,47.8-47.8h704.5
								c26.4,0,47.7,21.4,47.7,47.8V708.3z"/>
						</g>
					</g>
				</g>
			</g>
		</g>
	</g>
</g>
<g id="图层_6" display="none">
	<g display="inline">
		<g>
			<g>
				<g>
					<g>
						<g>
							<g>
								<g>
									
										<circle fill="none" stroke="#000000" stroke-width="5" stroke-linecap="round" stroke-linejoin="round" stroke-miterlimit="10" cx="487" cy="498.6" r="273.4"/>
								</g>
							</g>
						</g>
					</g>
				</g>
				<g>
					<g>
						<g>
							<g>
								<g>
									<g>
										
											<path fill="none" stroke="#000000" stroke-width="5" stroke-linecap="round" stroke-linejoin="round" stroke-miterlimit="10" d="
											M596,428.7c0,0-35.5,1.1-52.2-8.6c0,0-11.1-15.6-42.5-2.2c0,0-55,35.7-55.7,71.4c0,0-15.3,70.7,42.5,80.3
											c0,0,60.5-21.6,68.2,3.7c0,0,2.1,31.3,7.6,37.9c0,0,9,14.4,8.3,23.1c0,0-6.3,29,2.1,51.3c0,0,5.6,19.3,4.9,25.3
											c0,0,52.9-16.4,69.6-70c0,0,9.8-37.2,10.5-46.9c0,0,13.9-43.1,17.4-56.5c0,0,12.5-40.2-8.3-35c0,0-14.6-14.9-25.1-26
											C632.9,465.4,601.6,432.4,596,428.7z"/>
									</g>
								</g>
							</g>
						</g>
					</g>
					<g>
						<g>
							<g>
								<g>
									<g>
										
											<path fill="none" stroke="#000000" stroke-width="5" stroke-linecap="round" stroke-linejoin="round" stroke-miterlimit="10" d="
											M756.3,453.9c0,0-22.1-72.7-36.9-77c0,0-7.9,5.2-13.1,4.3c-5.3-0.9-31.5-17.3-33.2-13c-1.8,4.3,33.2,90.7,13.9,75.1
											l-73.3-67.4c0,0,15.7-13.8,10.5-21.6c-5.3-7.8-16.6,2.6-26.2,2.6c-9.6,0-22.7,7.8-27.9,0.8c-5.2-6.9-8.7-5.2-14-0.8
											c-5.3,4.3-14.8,11.2-15.7,6.9c-0.9-4.3-16.6-2.6-17.5-6.9c-0.8-4.3-34,19-40.2,19c-6.1,0-21.8,3.4-24.4-1.8
											c-2.6-5.2-7.9-22.5-2.6-27.6c5.2-5.2,30.9,0.3,29.7-6c-1.2-6.3-4.2-20.2-0.4-22.2c3.8-2,14.3-24.4,21.3-27
											c7-2.6,25.3,6.9,28,0.9c0,0,0.8-18.1-2.6-20.8c-3.5-2.6,13.1-21.6,14.8-25.9c1.8-4.3-24.8-18.8-32.7-18.8"/>
									</g>
								</g>
							</g>
						</g>
					</g>
					<g>
						<g>
							<g>
								<g>
									<g>
										
											<path fill="none" stroke="#000000" stroke-width="5" stroke-linecap="round" stroke-linejoin="round" stroke-miterlimit="10" d="
											M216.3,491c9.6-4.3,12.5-5.2,21,3.5c8.4,8.7,20.1,23.3,24.4,31.1c4.4,7.8,20.1,17.3,20.1,23.3c0,6.1-3.5,20.7,0,27.6
											c3.5,6.9,8.8,7.8,16.6,11.2c7.9,3.5,22.7,8.7,31.5,16.4c8.7,7.8,20.9,17.3,18.4,27.7c-2.6,10.4-7.9,25.9-6.1,32
											c1.7,6,7.9,16.4,0.9,20.7c-7,4.3-12.3,3.5-11.4,11.2c0.9,7.8,9.6,31.9,12.3,36.2"/>
									</g>
								</g>
							</g>
						</g>
					</g>
				</g>
			</g>
			<path fill="none" stroke="#000000" stroke-width="5" stroke-linecap="round" stroke-linejoin="round" stroke-miterlimit="10" d="
				M392.3,761.4l-18.9,47.4c38.7,13.6,78.2,19.5,116.8,18.6l29.9-2c116.7-13.3,221.8-88.5,268.7-203.2c2.1-5.2,4.2-10.5,6-15.9
				c51-145.2-5.4-302.2-127.6-384.1c-0.1,0-0.2-0.1-0.2-0.2c-4.5-3-9.1-5.9-13.8-8.7c0,0,0,0,0,0c-4.3-2.6-8.8-5.1-13.3-7.5
				c-0.4-0.2-0.7-0.4-1.1-0.6c-4.4-2.3-8.8-4.5-13.4-6.7c-0.5-0.3-1-0.5-1.5-0.8c-4.2-2-8.4-3.8-12.7-5.6c-0.9-0.4-1.8-0.8-2.7-1.2
				c-4-1.6-8.2-3.2-12.3-4.7c-1.2-0.4-2.3-0.9-3.6-1.3l0,0c-0.1,0-0.1,0-0.2-0.1l-19,48.4"/>
		</g>
		
			<line fill="none" stroke="#000000" stroke-width="5" stroke-linecap="round" stroke-linejoin="round" stroke-miterlimit="10" x1="492.8" y1="781.2" x2="492.8" y2="885.5"/>
		
			<line fill="none" stroke="#000000" stroke-width="5" stroke-linecap="round" stroke-linejoin="round" stroke-miterlimit="10" x1="556.2" y1="885.5" x2="429.4" y2="885.5"/>
	</g>
</g>
</svg>
